<mxfile host="app.diagrams.net" modified="2022-01-27T14:12:49.097Z" agent="5.0 (Windows NT 10.0; Win64; x64) AppleWebKit/537.36 (KHTML, like Gecko) Chrome/97.0.4692.99 Safari/537.36 Edg/97.0.1072.69" etag="ekMzWTdRvk1eF_OfK2nj" version="16.4.8" type="github">
  <diagram name="Page-1" id="2cc2dc42-3aac-f2a9-1cec-7a8b7cbee084">
    <mxGraphModel dx="770" dy="532" grid="1" gridSize="10" guides="1" tooltips="1" connect="1" arrows="1" fold="1" page="1" pageScale="1" pageWidth="1100" pageHeight="850" background="none" math="0" shadow="0">
      <root>
        <mxCell id="0" />
        <mxCell id="1" parent="0" />
        <mxCell id="7026571954dc6520-1" value="" style="strokeWidth=1;shadow=0;dashed=0;align=center;html=1;shape=mxgraph.mockup.containers.browserWindow;rSize=0;strokeColor=#666666;mainText=,;recursiveResize=0;rounded=0;labelBackgroundColor=none;fontFamily=Verdana;fontSize=12" parent="1" vertex="1">
          <mxGeometry x="30" y="20" width="1050" height="820" as="geometry" />
        </mxCell>
        <mxCell id="7026571954dc6520-2" value="Page 1" style="strokeWidth=1;shadow=0;dashed=0;align=center;html=1;shape=mxgraph.mockup.containers.anchor;fontSize=17;fontColor=#666666;align=left;" parent="7026571954dc6520-1" vertex="1">
          <mxGeometry x="60" y="12" width="110" height="26" as="geometry" />
        </mxCell>
        <mxCell id="7026571954dc6520-3" value="https://www.default.com" style="strokeWidth=1;shadow=0;dashed=0;align=center;html=1;shape=mxgraph.mockup.containers.anchor;rSize=0;fontSize=17;fontColor=#666666;align=left;" parent="7026571954dc6520-1" vertex="1">
          <mxGeometry x="130" y="60" width="250" height="26" as="geometry" />
        </mxCell>
        <mxCell id="7026571954dc6520-4" value="Ver pacientes" style="text;html=1;points=[];align=left;verticalAlign=top;spacingTop=-4;fontSize=30;fontFamily=Verdana" parent="7026571954dc6520-1" vertex="1">
          <mxGeometry x="30" y="140" width="340" height="50" as="geometry" />
        </mxCell>
        <mxCell id="hGg2r7m1itDcG9MfJLts-61" value="" style="shape=table;html=1;whiteSpace=wrap;startSize=0;container=1;collapsible=0;childLayout=tableLayout;" parent="7026571954dc6520-1" vertex="1">
          <mxGeometry x="20" y="210" width="680" height="410" as="geometry" />
        </mxCell>
        <mxCell id="hGg2r7m1itDcG9MfJLts-62" value="" style="shape=tableRow;horizontal=0;startSize=0;swimlaneHead=0;swimlaneBody=0;top=0;left=0;bottom=0;right=0;collapsible=0;dropTarget=0;fillColor=none;points=[[0,0.5],[1,0.5]];portConstraint=eastwest;" parent="hGg2r7m1itDcG9MfJLts-61" vertex="1">
          <mxGeometry width="680" height="50" as="geometry" />
        </mxCell>
        <mxCell id="hGg2r7m1itDcG9MfJLts-63" value="&lt;font style=&quot;font-size: 16px&quot;&gt;ID1&lt;/font&gt;" style="shape=partialRectangle;html=1;whiteSpace=wrap;connectable=0;fillColor=none;top=0;left=0;bottom=0;right=0;overflow=hidden;" parent="hGg2r7m1itDcG9MfJLts-62" vertex="1">
          <mxGeometry width="152" height="50" as="geometry">
            <mxRectangle width="152" height="50" as="alternateBounds" />
          </mxGeometry>
        </mxCell>
        <mxCell id="hGg2r7m1itDcG9MfJLts-64" value="&lt;font style=&quot;font-size: 16px&quot;&gt;Nombre1&lt;/font&gt;" style="shape=partialRectangle;html=1;whiteSpace=wrap;connectable=0;fillColor=none;top=0;left=0;bottom=0;right=0;overflow=hidden;" parent="hGg2r7m1itDcG9MfJLts-62" vertex="1">
          <mxGeometry x="152" width="398" height="50" as="geometry">
            <mxRectangle width="398" height="50" as="alternateBounds" />
          </mxGeometry>
        </mxCell>
        <mxCell id="hGg2r7m1itDcG9MfJLts-65" value="" style="shape=partialRectangle;html=1;whiteSpace=wrap;connectable=0;fillColor=none;top=0;left=0;bottom=0;right=0;overflow=hidden;" parent="hGg2r7m1itDcG9MfJLts-62" vertex="1">
          <mxGeometry x="550" width="130" height="50" as="geometry">
            <mxRectangle width="130" height="50" as="alternateBounds" />
          </mxGeometry>
        </mxCell>
        <mxCell id="hGg2r7m1itDcG9MfJLts-66" value="" style="shape=tableRow;horizontal=0;startSize=0;swimlaneHead=0;swimlaneBody=0;top=0;left=0;bottom=0;right=0;collapsible=0;dropTarget=0;fillColor=none;points=[[0,0.5],[1,0.5]];portConstraint=eastwest;" parent="hGg2r7m1itDcG9MfJLts-61" vertex="1">
          <mxGeometry y="50" width="680" height="40" as="geometry" />
        </mxCell>
        <mxCell id="hGg2r7m1itDcG9MfJLts-67" value="&lt;font style=&quot;font-size: 16px&quot;&gt;ID2&lt;/font&gt;" style="shape=partialRectangle;html=1;whiteSpace=wrap;connectable=0;fillColor=none;top=0;left=0;bottom=0;right=0;overflow=hidden;" parent="hGg2r7m1itDcG9MfJLts-66" vertex="1">
          <mxGeometry width="152" height="40" as="geometry">
            <mxRectangle width="152" height="40" as="alternateBounds" />
          </mxGeometry>
        </mxCell>
        <mxCell id="hGg2r7m1itDcG9MfJLts-68" value="&lt;font style=&quot;font-size: 16px&quot;&gt;Nombre2&lt;/font&gt;" style="shape=partialRectangle;html=1;whiteSpace=wrap;connectable=0;fillColor=none;top=0;left=0;bottom=0;right=0;overflow=hidden;" parent="hGg2r7m1itDcG9MfJLts-66" vertex="1">
          <mxGeometry x="152" width="398" height="40" as="geometry">
            <mxRectangle width="398" height="40" as="alternateBounds" />
          </mxGeometry>
        </mxCell>
        <mxCell id="hGg2r7m1itDcG9MfJLts-69" value="" style="shape=partialRectangle;html=1;whiteSpace=wrap;connectable=0;fillColor=none;top=0;left=0;bottom=0;right=0;overflow=hidden;" parent="hGg2r7m1itDcG9MfJLts-66" vertex="1">
          <mxGeometry x="550" width="130" height="40" as="geometry">
            <mxRectangle width="130" height="40" as="alternateBounds" />
          </mxGeometry>
        </mxCell>
        <mxCell id="hGg2r7m1itDcG9MfJLts-70" value="" style="shape=tableRow;horizontal=0;startSize=0;swimlaneHead=0;swimlaneBody=0;top=0;left=0;bottom=0;right=0;collapsible=0;dropTarget=0;fillColor=none;points=[[0,0.5],[1,0.5]];portConstraint=eastwest;" parent="hGg2r7m1itDcG9MfJLts-61" vertex="1">
          <mxGeometry y="90" width="680" height="40" as="geometry" />
        </mxCell>
        <mxCell id="hGg2r7m1itDcG9MfJLts-71" value="&lt;font style=&quot;font-size: 16px&quot;&gt;ID3&lt;/font&gt;" style="shape=partialRectangle;html=1;whiteSpace=wrap;connectable=0;fillColor=none;top=0;left=0;bottom=0;right=0;overflow=hidden;" parent="hGg2r7m1itDcG9MfJLts-70" vertex="1">
          <mxGeometry width="152" height="40" as="geometry">
            <mxRectangle width="152" height="40" as="alternateBounds" />
          </mxGeometry>
        </mxCell>
        <mxCell id="hGg2r7m1itDcG9MfJLts-72" value="&lt;font style=&quot;font-size: 16px&quot;&gt;Nombre3&lt;/font&gt;" style="shape=partialRectangle;html=1;whiteSpace=wrap;connectable=0;fillColor=none;top=0;left=0;bottom=0;right=0;overflow=hidden;" parent="hGg2r7m1itDcG9MfJLts-70" vertex="1">
          <mxGeometry x="152" width="398" height="40" as="geometry">
            <mxRectangle width="398" height="40" as="alternateBounds" />
          </mxGeometry>
        </mxCell>
        <mxCell id="hGg2r7m1itDcG9MfJLts-73" value="" style="shape=partialRectangle;html=1;whiteSpace=wrap;connectable=0;fillColor=none;top=0;left=0;bottom=0;right=0;overflow=hidden;pointerEvents=1;" parent="hGg2r7m1itDcG9MfJLts-70" vertex="1">
          <mxGeometry x="550" width="130" height="40" as="geometry">
            <mxRectangle width="130" height="40" as="alternateBounds" />
          </mxGeometry>
        </mxCell>
        <mxCell id="hGg2r7m1itDcG9MfJLts-74" style="shape=tableRow;horizontal=0;startSize=0;swimlaneHead=0;swimlaneBody=0;top=0;left=0;bottom=0;right=0;collapsible=0;dropTarget=0;fillColor=none;points=[[0,0.5],[1,0.5]];portConstraint=eastwest;" parent="hGg2r7m1itDcG9MfJLts-61" vertex="1">
          <mxGeometry y="130" width="680" height="40" as="geometry" />
        </mxCell>
        <mxCell id="hGg2r7m1itDcG9MfJLts-75" value="&lt;font style=&quot;font-size: 16px&quot;&gt;...&lt;/font&gt;" style="shape=partialRectangle;html=1;whiteSpace=wrap;connectable=0;fillColor=none;top=0;left=0;bottom=0;right=0;overflow=hidden;" parent="hGg2r7m1itDcG9MfJLts-74" vertex="1">
          <mxGeometry width="152" height="40" as="geometry">
            <mxRectangle width="152" height="40" as="alternateBounds" />
          </mxGeometry>
        </mxCell>
        <mxCell id="hGg2r7m1itDcG9MfJLts-76" value="&lt;font style=&quot;font-size: 16px&quot;&gt;...&lt;/font&gt;" style="shape=partialRectangle;html=1;whiteSpace=wrap;connectable=0;fillColor=none;top=0;left=0;bottom=0;right=0;overflow=hidden;" parent="hGg2r7m1itDcG9MfJLts-74" vertex="1">
          <mxGeometry x="152" width="398" height="40" as="geometry">
            <mxRectangle width="398" height="40" as="alternateBounds" />
          </mxGeometry>
        </mxCell>
        <mxCell id="hGg2r7m1itDcG9MfJLts-77" style="shape=partialRectangle;html=1;whiteSpace=wrap;connectable=0;fillColor=none;top=0;left=0;bottom=0;right=0;overflow=hidden;pointerEvents=1;" parent="hGg2r7m1itDcG9MfJLts-74" vertex="1">
          <mxGeometry x="550" width="130" height="40" as="geometry">
            <mxRectangle width="130" height="40" as="alternateBounds" />
          </mxGeometry>
        </mxCell>
        <mxCell id="hGg2r7m1itDcG9MfJLts-78" style="shape=tableRow;horizontal=0;startSize=0;swimlaneHead=0;swimlaneBody=0;top=0;left=0;bottom=0;right=0;collapsible=0;dropTarget=0;fillColor=none;points=[[0,0.5],[1,0.5]];portConstraint=eastwest;" parent="hGg2r7m1itDcG9MfJLts-61" vertex="1">
          <mxGeometry y="170" width="680" height="40" as="geometry" />
        </mxCell>
        <mxCell id="hGg2r7m1itDcG9MfJLts-79" style="shape=partialRectangle;html=1;whiteSpace=wrap;connectable=0;fillColor=none;top=0;left=0;bottom=0;right=0;overflow=hidden;" parent="hGg2r7m1itDcG9MfJLts-78" vertex="1">
          <mxGeometry width="152" height="40" as="geometry">
            <mxRectangle width="152" height="40" as="alternateBounds" />
          </mxGeometry>
        </mxCell>
        <mxCell id="hGg2r7m1itDcG9MfJLts-80" style="shape=partialRectangle;html=1;whiteSpace=wrap;connectable=0;fillColor=none;top=0;left=0;bottom=0;right=0;overflow=hidden;" parent="hGg2r7m1itDcG9MfJLts-78" vertex="1">
          <mxGeometry x="152" width="398" height="40" as="geometry">
            <mxRectangle width="398" height="40" as="alternateBounds" />
          </mxGeometry>
        </mxCell>
        <mxCell id="hGg2r7m1itDcG9MfJLts-81" style="shape=partialRectangle;html=1;whiteSpace=wrap;connectable=0;fillColor=none;top=0;left=0;bottom=0;right=0;overflow=hidden;pointerEvents=1;" parent="hGg2r7m1itDcG9MfJLts-78" vertex="1">
          <mxGeometry x="550" width="130" height="40" as="geometry">
            <mxRectangle width="130" height="40" as="alternateBounds" />
          </mxGeometry>
        </mxCell>
        <mxCell id="hGg2r7m1itDcG9MfJLts-82" style="shape=tableRow;horizontal=0;startSize=0;swimlaneHead=0;swimlaneBody=0;top=0;left=0;bottom=0;right=0;collapsible=0;dropTarget=0;fillColor=none;points=[[0,0.5],[1,0.5]];portConstraint=eastwest;" parent="hGg2r7m1itDcG9MfJLts-61" vertex="1">
          <mxGeometry y="210" width="680" height="40" as="geometry" />
        </mxCell>
        <mxCell id="hGg2r7m1itDcG9MfJLts-83" style="shape=partialRectangle;html=1;whiteSpace=wrap;connectable=0;fillColor=none;top=0;left=0;bottom=0;right=0;overflow=hidden;" parent="hGg2r7m1itDcG9MfJLts-82" vertex="1">
          <mxGeometry width="152" height="40" as="geometry">
            <mxRectangle width="152" height="40" as="alternateBounds" />
          </mxGeometry>
        </mxCell>
        <mxCell id="hGg2r7m1itDcG9MfJLts-84" style="shape=partialRectangle;html=1;whiteSpace=wrap;connectable=0;fillColor=none;top=0;left=0;bottom=0;right=0;overflow=hidden;" parent="hGg2r7m1itDcG9MfJLts-82" vertex="1">
          <mxGeometry x="152" width="398" height="40" as="geometry">
            <mxRectangle width="398" height="40" as="alternateBounds" />
          </mxGeometry>
        </mxCell>
        <mxCell id="hGg2r7m1itDcG9MfJLts-85" style="shape=partialRectangle;html=1;whiteSpace=wrap;connectable=0;fillColor=none;top=0;left=0;bottom=0;right=0;overflow=hidden;pointerEvents=1;" parent="hGg2r7m1itDcG9MfJLts-82" vertex="1">
          <mxGeometry x="550" width="130" height="40" as="geometry">
            <mxRectangle width="130" height="40" as="alternateBounds" />
          </mxGeometry>
        </mxCell>
        <mxCell id="hGg2r7m1itDcG9MfJLts-86" style="shape=tableRow;horizontal=0;startSize=0;swimlaneHead=0;swimlaneBody=0;top=0;left=0;bottom=0;right=0;collapsible=0;dropTarget=0;fillColor=none;points=[[0,0.5],[1,0.5]];portConstraint=eastwest;" parent="hGg2r7m1itDcG9MfJLts-61" vertex="1">
          <mxGeometry y="250" width="680" height="40" as="geometry" />
        </mxCell>
        <mxCell id="hGg2r7m1itDcG9MfJLts-87" style="shape=partialRectangle;html=1;whiteSpace=wrap;connectable=0;fillColor=none;top=0;left=0;bottom=0;right=0;overflow=hidden;" parent="hGg2r7m1itDcG9MfJLts-86" vertex="1">
          <mxGeometry width="152" height="40" as="geometry">
            <mxRectangle width="152" height="40" as="alternateBounds" />
          </mxGeometry>
        </mxCell>
        <mxCell id="hGg2r7m1itDcG9MfJLts-88" style="shape=partialRectangle;html=1;whiteSpace=wrap;connectable=0;fillColor=none;top=0;left=0;bottom=0;right=0;overflow=hidden;" parent="hGg2r7m1itDcG9MfJLts-86" vertex="1">
          <mxGeometry x="152" width="398" height="40" as="geometry">
            <mxRectangle width="398" height="40" as="alternateBounds" />
          </mxGeometry>
        </mxCell>
        <mxCell id="hGg2r7m1itDcG9MfJLts-89" style="shape=partialRectangle;html=1;whiteSpace=wrap;connectable=0;fillColor=none;top=0;left=0;bottom=0;right=0;overflow=hidden;pointerEvents=1;" parent="hGg2r7m1itDcG9MfJLts-86" vertex="1">
          <mxGeometry x="550" width="130" height="40" as="geometry">
            <mxRectangle width="130" height="40" as="alternateBounds" />
          </mxGeometry>
        </mxCell>
        <mxCell id="hGg2r7m1itDcG9MfJLts-90" style="shape=tableRow;horizontal=0;startSize=0;swimlaneHead=0;swimlaneBody=0;top=0;left=0;bottom=0;right=0;collapsible=0;dropTarget=0;fillColor=none;points=[[0,0.5],[1,0.5]];portConstraint=eastwest;" parent="hGg2r7m1itDcG9MfJLts-61" vertex="1">
          <mxGeometry y="290" width="680" height="40" as="geometry" />
        </mxCell>
        <mxCell id="hGg2r7m1itDcG9MfJLts-91" style="shape=partialRectangle;html=1;whiteSpace=wrap;connectable=0;fillColor=none;top=0;left=0;bottom=0;right=0;overflow=hidden;" parent="hGg2r7m1itDcG9MfJLts-90" vertex="1">
          <mxGeometry width="152" height="40" as="geometry">
            <mxRectangle width="152" height="40" as="alternateBounds" />
          </mxGeometry>
        </mxCell>
        <mxCell id="hGg2r7m1itDcG9MfJLts-92" style="shape=partialRectangle;html=1;whiteSpace=wrap;connectable=0;fillColor=none;top=0;left=0;bottom=0;right=0;overflow=hidden;" parent="hGg2r7m1itDcG9MfJLts-90" vertex="1">
          <mxGeometry x="152" width="398" height="40" as="geometry">
            <mxRectangle width="398" height="40" as="alternateBounds" />
          </mxGeometry>
        </mxCell>
        <mxCell id="hGg2r7m1itDcG9MfJLts-93" style="shape=partialRectangle;html=1;whiteSpace=wrap;connectable=0;fillColor=none;top=0;left=0;bottom=0;right=0;overflow=hidden;pointerEvents=1;" parent="hGg2r7m1itDcG9MfJLts-90" vertex="1">
          <mxGeometry x="550" width="130" height="40" as="geometry">
            <mxRectangle width="130" height="40" as="alternateBounds" />
          </mxGeometry>
        </mxCell>
        <mxCell id="hGg2r7m1itDcG9MfJLts-94" style="shape=tableRow;horizontal=0;startSize=0;swimlaneHead=0;swimlaneBody=0;top=0;left=0;bottom=0;right=0;collapsible=0;dropTarget=0;fillColor=none;points=[[0,0.5],[1,0.5]];portConstraint=eastwest;" parent="hGg2r7m1itDcG9MfJLts-61" vertex="1">
          <mxGeometry y="330" width="680" height="40" as="geometry" />
        </mxCell>
        <mxCell id="hGg2r7m1itDcG9MfJLts-95" style="shape=partialRectangle;html=1;whiteSpace=wrap;connectable=0;fillColor=none;top=0;left=0;bottom=0;right=0;overflow=hidden;" parent="hGg2r7m1itDcG9MfJLts-94" vertex="1">
          <mxGeometry width="152" height="40" as="geometry">
            <mxRectangle width="152" height="40" as="alternateBounds" />
          </mxGeometry>
        </mxCell>
        <mxCell id="hGg2r7m1itDcG9MfJLts-96" style="shape=partialRectangle;html=1;whiteSpace=wrap;connectable=0;fillColor=none;top=0;left=0;bottom=0;right=0;overflow=hidden;" parent="hGg2r7m1itDcG9MfJLts-94" vertex="1">
          <mxGeometry x="152" width="398" height="40" as="geometry">
            <mxRectangle width="398" height="40" as="alternateBounds" />
          </mxGeometry>
        </mxCell>
        <mxCell id="hGg2r7m1itDcG9MfJLts-97" style="shape=partialRectangle;html=1;whiteSpace=wrap;connectable=0;fillColor=none;top=0;left=0;bottom=0;right=0;overflow=hidden;pointerEvents=1;" parent="hGg2r7m1itDcG9MfJLts-94" vertex="1">
          <mxGeometry x="550" width="130" height="40" as="geometry">
            <mxRectangle width="130" height="40" as="alternateBounds" />
          </mxGeometry>
        </mxCell>
        <mxCell id="hGg2r7m1itDcG9MfJLts-98" style="shape=tableRow;horizontal=0;startSize=0;swimlaneHead=0;swimlaneBody=0;top=0;left=0;bottom=0;right=0;collapsible=0;dropTarget=0;fillColor=none;points=[[0,0.5],[1,0.5]];portConstraint=eastwest;" parent="hGg2r7m1itDcG9MfJLts-61" vertex="1">
          <mxGeometry y="370" width="680" height="40" as="geometry" />
        </mxCell>
        <mxCell id="hGg2r7m1itDcG9MfJLts-99" style="shape=partialRectangle;html=1;whiteSpace=wrap;connectable=0;fillColor=none;top=0;left=0;bottom=0;right=0;overflow=hidden;" parent="hGg2r7m1itDcG9MfJLts-98" vertex="1">
          <mxGeometry width="152" height="40" as="geometry">
            <mxRectangle width="152" height="40" as="alternateBounds" />
          </mxGeometry>
        </mxCell>
        <mxCell id="hGg2r7m1itDcG9MfJLts-100" style="shape=partialRectangle;html=1;whiteSpace=wrap;connectable=0;fillColor=none;top=0;left=0;bottom=0;right=0;overflow=hidden;" parent="hGg2r7m1itDcG9MfJLts-98" vertex="1">
          <mxGeometry x="152" width="398" height="40" as="geometry">
            <mxRectangle width="398" height="40" as="alternateBounds" />
          </mxGeometry>
        </mxCell>
        <mxCell id="hGg2r7m1itDcG9MfJLts-101" style="shape=partialRectangle;html=1;whiteSpace=wrap;connectable=0;fillColor=none;top=0;left=0;bottom=0;right=0;overflow=hidden;pointerEvents=1;" parent="hGg2r7m1itDcG9MfJLts-98" vertex="1">
          <mxGeometry x="550" width="130" height="40" as="geometry">
            <mxRectangle width="130" height="40" as="alternateBounds" />
          </mxGeometry>
        </mxCell>
        <mxCell id="hGg2r7m1itDcG9MfJLts-102" value="Ver detalles" style="labelPosition=center;verticalLabelPosition=middle;align=center;html=1;shape=mxgraph.basic.button;dx=10;fontSize=16;" parent="7026571954dc6520-1" vertex="1">
          <mxGeometry x="570" y="210" width="130" height="50" as="geometry" />
        </mxCell>
        <mxCell id="hGg2r7m1itDcG9MfJLts-103" value="Ver detalles" style="labelPosition=center;verticalLabelPosition=middle;align=center;html=1;shape=mxgraph.basic.button;dx=10;fontSize=16;" parent="7026571954dc6520-1" vertex="1">
          <mxGeometry x="570" y="260" width="130" height="50" as="geometry" />
        </mxCell>
        <mxCell id="hGg2r7m1itDcG9MfJLts-104" value="Ver detalles" style="labelPosition=center;verticalLabelPosition=middle;align=center;html=1;shape=mxgraph.basic.button;dx=10;fontSize=16;" parent="7026571954dc6520-1" vertex="1">
          <mxGeometry x="570" y="300" width="130" height="50" as="geometry" />
        </mxCell>
        <mxCell id="PGY53-PrN4n8s7iK4aQK-1" value="" style="html=1;verticalLabelPosition=bottom;align=center;labelBackgroundColor=#ffffff;verticalAlign=top;strokeWidth=2;strokeColor=#0080F0;shadow=0;dashed=0;shape=mxgraph.ios7.icons.page_navigation;pointerEvents=1;fontSize=16;" vertex="1" parent="7026571954dc6520-1">
          <mxGeometry x="345" y="630" width="30" height="4.8" as="geometry" />
        </mxCell>
        <mxCell id="PGY53-PrN4n8s7iK4aQK-2" value="#page navigation" style="text;html=1;strokeColor=none;fillColor=none;align=center;verticalAlign=middle;whiteSpace=wrap;rounded=0;fontSize=16;" vertex="1" parent="7026571954dc6520-1">
          <mxGeometry x="285" y="640" width="150" height="30" as="geometry" />
        </mxCell>
      </root>
    </mxGraphModel>
  </diagram>
</mxfile>
